<svg width="22" height="21" viewBox="0 0 22 21" fill="none" xmlns="http://www.w3.org/2000/svg">
<path d="M4.62698 0H16.567C17.8145 0 18.947 0.51 19.767 1.33C20.587 2.15 21.097 3.2825 21.097 4.53V16.47C21.097 17.7175 20.587 18.85 19.767 19.67C18.947 20.49 17.812 21 16.567 21H4.62698C3.37948 21 2.24698 20.49 1.42698 19.67C0.606985 18.85 0.0969849 17.715 0.0969849 16.47V4.53C0.0969849 3.2825 0.606985 2.15 1.42698 1.33C2.24698 0.51 3.38198 0 4.62698 0ZM16.9845 2.91C17.317 2.91 17.617 3.0425 17.8345 3.2625C18.052 3.48 18.187 3.78 18.187 4.1125C18.187 4.4425 18.052 4.7425 17.8345 4.96C17.8245 4.97 17.8145 4.9775 17.8045 4.9875C17.5895 5.19 17.302 5.3125 16.9845 5.3125C16.6545 5.3125 16.3545 5.18 16.137 4.96L16.1345 4.9575C15.917 4.74 15.782 4.4425 15.782 4.1125C15.782 3.7825 15.917 3.4825 16.1345 3.265V3.2625C16.352 3.045 16.652 2.91 16.9845 2.91ZM17.2295 3.865C17.167 3.8025 17.0795 3.7625 16.9845 3.7625C16.8895 3.7625 16.802 3.8025 16.7395 3.865C16.677 3.9275 16.6395 4.015 16.6395 4.1125C16.6395 4.2075 16.677 4.295 16.7395 4.3575C16.802 4.4225 16.8895 4.46 16.987 4.46C17.077 4.46 17.157 4.4275 17.2195 4.3725L17.2345 4.3575C17.297 4.295 17.337 4.2075 17.337 4.1125C17.337 4.015 17.297 3.93 17.2345 3.865H17.2295ZM10.597 4.655C12.212 4.655 13.672 5.31 14.7295 6.3675C15.787 7.425 16.442 8.8875 16.442 10.5C16.442 12.115 15.787 13.575 14.7295 14.6325C13.672 15.69 12.2095 16.345 10.597 16.345C8.98199 16.345 7.52198 15.69 6.46448 14.6325C5.40698 13.575 4.75198 12.1125 4.75198 10.5C4.75198 8.885 5.40698 7.425 6.46448 6.3675C7.52198 5.31 8.98449 4.655 10.597 4.655ZM14.127 6.97C13.2245 6.0675 11.9745 5.5075 10.597 5.5075C9.21949 5.5075 7.96949 6.065 7.06699 6.97C6.16449 7.8725 5.60449 9.1225 5.60449 10.5C5.60449 11.8775 6.16199 13.1275 7.06699 14.03C7.96949 14.9325 9.21949 15.4925 10.597 15.4925C11.9745 15.4925 13.2245 14.9325 14.127 14.03C15.0295 13.1275 15.5895 11.8775 15.5895 10.5C15.5895 9.1225 15.0295 7.8725 14.127 6.97ZM16.567 0.8525H4.62698C3.61698 0.8525 2.69698 1.2675 2.02948 1.9325C1.36198 2.6 0.949485 3.52 0.949485 4.53V16.47C0.949485 17.48 1.36448 18.4 2.02948 19.0675C2.69698 19.735 3.61698 20.1475 4.62698 20.1475H16.567C17.577 20.1475 18.497 19.7325 19.1645 19.0675C19.832 18.4 20.2445 17.48 20.2445 16.47V4.53C20.2445 3.52 19.8295 2.5975 19.1645 1.9325C18.497 1.265 17.577 0.8525 16.567 0.8525Z" fill="#494948"/>
</svg>
