<svg width="33" height="32" viewBox="0 0 33 32" fill="none" xmlns="http://www.w3.org/2000/svg">
<path d="M7.68714 1H25.3129C27.1544 1 28.8262 1.74592 30.0367 2.94524C31.2471 4.14456 32 5.80095 32 7.62553V25.0888C32 26.9134 31.2471 28.5698 30.0367 29.7691C28.8262 30.9684 27.1507 31.7144 25.3129 31.7144H7.68714C5.84559 31.7144 4.17381 30.9684 2.96333 29.7691C1.75286 28.5698 1 26.9097 1 25.0888V7.62553C1 5.80095 1.75286 4.14456 2.96333 2.94524C4.17381 1.74592 5.84929 1 7.68714 1ZM25.9292 5.25613C26.42 5.25613 26.8629 5.44992 27.1839 5.77169C27.505 6.08981 27.7043 6.52858 27.7043 7.01489C27.7043 7.49755 27.505 7.93632 27.1839 8.25444C27.1692 8.26906 27.1544 8.28003 27.1396 8.29466C26.8223 8.59083 26.3979 8.77 25.9292 8.77C25.442 8.77 24.9992 8.57621 24.6781 8.25444L24.6744 8.25078C24.3533 7.93267 24.154 7.49755 24.154 7.01489C24.154 6.53224 24.3533 6.09346 24.6744 5.77535V5.77169C24.9955 5.45358 25.4383 5.25613 25.9292 5.25613ZM26.2908 6.6529C26.1986 6.56149 26.0694 6.50299 25.9292 6.50299C25.7889 6.50299 25.6598 6.56149 25.5675 6.6529C25.4752 6.74432 25.4199 6.87229 25.4199 7.01489C25.4199 7.15384 25.4752 7.28182 25.5675 7.37323C25.6598 7.4683 25.7889 7.52314 25.9329 7.52314C26.0657 7.52314 26.1838 7.47561 26.2761 7.39517L26.2982 7.37323C26.3905 7.28182 26.4495 7.15384 26.4495 7.01489C26.4495 6.87229 26.3905 6.74797 26.2982 6.6529H26.2908ZM16.5 7.80835C18.884 7.80835 21.0393 8.76634 22.6004 10.313C24.1614 11.8597 25.1283 13.9988 25.1283 16.3572C25.1283 18.7193 24.1614 20.8546 22.6004 22.4013C21.0393 23.948 18.8804 24.906 16.5 24.906C14.116 24.906 11.9607 23.948 10.3996 22.4013C8.83857 20.8546 7.87167 18.7156 7.87167 16.3572C7.87167 13.9951 8.83857 11.8597 10.3996 10.313C11.9607 8.76634 14.1196 7.80835 16.5 7.80835ZM21.711 11.1942C20.3787 9.87425 18.5335 9.0552 16.5 9.0552C14.4665 9.0552 12.6213 9.8706 11.289 11.1942C9.95679 12.5142 9.13012 14.3425 9.13012 16.3572C9.13012 18.3719 9.9531 20.2001 11.289 21.5201C12.6213 22.8401 14.4665 23.6591 16.5 23.6591C18.5335 23.6591 20.3787 22.8401 21.711 21.5201C23.0432 20.2001 23.8699 18.3719 23.8699 16.3572C23.8699 14.3425 23.0432 12.5142 21.711 11.1942ZM25.3129 2.24686H7.68714C6.19619 2.24686 4.83809 2.85383 3.85274 3.82645C2.86738 4.80273 2.25845 6.14831 2.25845 7.62553V25.0888C2.25845 26.566 2.87107 27.9116 3.85274 28.8879C4.83809 29.8642 6.19619 30.4675 7.68714 30.4675H25.3129C26.8038 30.4675 28.1619 29.8605 29.1473 28.8879C30.1326 27.9116 30.7416 26.566 30.7416 25.0888V7.62553C30.7416 6.14831 30.1289 4.79907 29.1473 3.82645C28.1619 2.85017 26.8038 2.24686 25.3129 2.24686Z" fill="#494948" stroke="black" stroke-width="0.2"/>
</svg>
