<svg width="16" height="15" viewBox="0 0 16 15" fill="none" xmlns="http://www.w3.org/2000/svg">
<path d="M3.24511 0H11.7737C12.6648 0 13.4737 0.364286 14.0594 0.95C14.6451 1.53571 15.0094 2.34464 15.0094 3.23571V11.7643C15.0094 12.6554 14.6451 13.4643 14.0594 14.05C13.4737 14.6357 12.663 15 11.7737 15H3.24511C2.35404 15 1.54511 14.6357 0.959399 14.05C0.373685 13.4643 0.00939941 12.6536 0.00939941 11.7643V3.23571C0.00939941 2.34464 0.373685 1.53571 0.959399 0.95C1.54511 0.364286 2.35583 0 3.24511 0ZM12.0719 2.07857C12.3094 2.07857 12.5237 2.17321 12.679 2.33036C12.8344 2.48571 12.9308 2.7 12.9308 2.9375C12.9308 3.17321 12.8344 3.3875 12.679 3.54286C12.6719 3.55 12.6648 3.55536 12.6576 3.5625C12.504 3.70714 12.2987 3.79464 12.0719 3.79464C11.8362 3.79464 11.6219 3.7 11.4665 3.54286L11.4648 3.54107C11.3094 3.38571 11.213 3.17321 11.213 2.9375C11.213 2.70179 11.3094 2.4875 11.4648 2.33214V2.33036C11.6201 2.175 11.8344 2.07857 12.0719 2.07857ZM12.2469 2.76071C12.2023 2.71607 12.1398 2.6875 12.0719 2.6875C12.004 2.6875 11.9415 2.71607 11.8969 2.76071C11.8523 2.80536 11.8255 2.86786 11.8255 2.9375C11.8255 3.00536 11.8523 3.06786 11.8969 3.1125C11.9415 3.15893 12.004 3.18571 12.0737 3.18571C12.138 3.18571 12.1951 3.1625 12.2398 3.12321L12.2505 3.1125C12.2951 3.06786 12.3237 3.00536 12.3237 2.9375C12.3237 2.86786 12.2951 2.80714 12.2505 2.76071H12.2469ZM7.5094 3.325C8.66297 3.325 9.70583 3.79286 10.4612 4.54821C11.2165 5.30357 11.6844 6.34821 11.6844 7.5C11.6844 8.65357 11.2165 9.69643 10.4612 10.4518C9.70583 11.2071 8.66119 11.675 7.5094 11.675C6.35583 11.675 5.31297 11.2071 4.55761 10.4518C3.80226 9.69643 3.3344 8.65179 3.3344 7.5C3.3344 6.34643 3.80226 5.30357 4.55761 4.54821C5.31297 3.79286 6.35761 3.325 7.5094 3.325ZM10.0308 4.97857C9.38619 4.33393 8.49333 3.93393 7.5094 3.93393C6.52547 3.93393 5.63261 4.33214 4.98797 4.97857C4.34333 5.62321 3.94333 6.51607 3.94333 7.5C3.94333 8.48393 4.34154 9.37679 4.98797 10.0214C5.63261 10.6661 6.52547 11.0661 7.5094 11.0661C8.49333 11.0661 9.38619 10.6661 10.0308 10.0214C10.6755 9.37679 11.0755 8.48393 11.0755 7.5C11.0755 6.51607 10.6755 5.62321 10.0308 4.97857ZM11.7737 0.608929H3.24511C2.52368 0.608929 1.86654 0.905357 1.38976 1.38036C0.912971 1.85714 0.618328 2.51429 0.618328 3.23571V11.7643C0.618328 12.4857 0.914756 13.1429 1.38976 13.6196C1.86654 14.0964 2.52368 14.3911 3.24511 14.3911H11.7737C12.4951 14.3911 13.1523 14.0946 13.629 13.6196C14.1058 13.1429 14.4005 12.4857 14.4005 11.7643V3.23571C14.4005 2.51429 14.104 1.85536 13.629 1.38036C13.1523 0.903571 12.4951 0.608929 11.7737 0.608929Z" fill="#494948"/>
</svg>
