<svg width="29" height="20" viewBox="0 0 29 20" fill="none" xmlns="http://www.w3.org/2000/svg">
<path d="M26.697 0H1.49699C0.723782 0 0.096991 0.639583 0.096991 1.42857V18.5714C0.096116 18.8716 0.189099 19.1642 0.362524 19.4067C0.625374 19.7789 1.04742 19.9996 1.49699 20H26.697C27.1459 19.9997 27.5674 19.7798 27.8305 19.4086C28.0043 19.1655 28.0977 18.8723 28.097 18.5714V1.42857C28.097 0.639583 27.4702 0 26.697 0ZM1.03032 18.2986V3.13143L10.6507 10.7143L1.03032 18.2986ZM1.60666 19.0476L11.4137 11.3162L13.2416 12.7562C13.7455 13.1531 14.4484 13.1531 14.9524 12.7562L16.7803 11.3162L26.5873 19.0476H1.60666ZM27.1636 18.2986L17.5433 10.7143L27.1636 3.13143V18.2986ZM27.1636 1.9281L14.3821 12.0024C14.2141 12.1347 13.9799 12.1347 13.8119 12.0024L1.03032 1.9281V1.42857C1.03032 1.1656 1.23927 0.952381 1.49699 0.952381H26.697C26.9547 0.952381 27.1636 1.1656 27.1636 1.42857V1.9281Z" fill="#494948"/>
</svg>
