<svg width="16" height="10" viewBox="0 0 16 10" fill="none" xmlns="http://www.w3.org/2000/svg">
<path d="M14.2594 0H0.759402C0.345184 0 0.00940269 0.319792 0.00940269 0.714286V9.28571C0.00893394 9.4358 0.0587464 9.58211 0.151653 9.70333C0.292465 9.88943 0.518559 9.99979 0.759402 10H14.2594C14.4999 9.99985 14.7257 9.88988 14.8666 9.70429C14.9598 9.58277 15.0098 9.43616 15.0094 9.28571V0.714286C15.0094 0.319792 14.6736 0 14.2594 0ZM0.509403 9.14929V1.56571L5.66315 5.35714L0.509403 9.14929ZM0.818152 9.52381L6.0719 5.6581L7.05115 6.37809C7.32112 6.57655 7.69768 6.57655 7.96765 6.37809L8.9469 5.6581L14.2006 9.52381H0.818152ZM14.5094 9.14929L9.35565 5.35714L14.5094 1.56571V9.14929ZM14.5094 0.964048L7.66215 6.00119C7.57215 6.06735 7.44665 6.06735 7.35665 6.00119L0.509403 0.964048V0.714286C0.509403 0.582798 0.62134 0.47619 0.759402 0.47619H14.2594C14.3975 0.47619 14.5094 0.582798 14.5094 0.714286V0.964048Z" fill="#494948"/>
</svg>
