<svg width="22" height="21" viewBox="0 0 22 21" fill="none" xmlns="http://www.w3.org/2000/svg">
<path d="M20.6407 16.2008L16.3503 13.366C15.8059 13.0092 15.0761 13.1266 14.6735 13.6358L13.4238 15.2278C13.2632 15.4377 12.9713 15.4985 12.7389 15.3707L12.5012 15.2408C11.7131 14.8152 10.7326 14.2854 8.75697 12.3273C6.78136 10.3692 6.24552 9.39694 5.81597 8.61758L5.68562 8.38205C5.55477 8.15188 5.61504 7.86139 5.8269 7.70099L7.43266 6.46316C7.94644 6.06431 8.06511 5.34142 7.70536 4.80182L4.8442 0.551046C4.47551 0.00156087 3.7358 -0.163391 3.16501 0.176561L1.37096 1.24432C0.807253 1.57267 0.393685 2.10443 0.216974 2.72819C-0.429062 5.06041 0.0569448 9.08545 6.04136 15.0154C10.8018 19.7316 14.3458 20.9999 16.7817 20.9999C17.3423 21.0023 17.9007 20.9301 18.4418 20.7851C19.0715 20.6102 19.6083 20.2004 19.9395 19.6417L21.0183 17.8653C21.3619 17.2996 21.1955 16.5663 20.6407 16.2008ZM20.4096 17.5062L19.3334 19.2837C19.0955 19.6869 18.7095 19.9834 18.256 20.111C16.0829 20.7021 12.2864 20.2125 6.54115 14.5202C0.79587 8.82789 0.301749 5.06672 0.898361 2.91336C1.02734 2.46354 1.32695 2.08052 1.73444 1.84454L3.5285 0.778173C3.77616 0.630528 4.09721 0.702095 4.2572 0.940541L5.81142 3.25245L7.11591 5.19095C7.27213 5.42501 7.2208 5.73871 6.99794 5.91191L5.39181 7.14975C4.90303 7.52005 4.76344 8.19007 5.06438 8.72184L5.19191 8.95142C5.64336 9.77175 6.20462 10.7923 8.25371 12.8221C10.3028 14.852 11.3325 15.4081 12.1601 15.8553L12.3921 15.982C12.9288 16.2801 13.6051 16.1419 13.9788 15.6576L15.2282 14.0663C15.403 13.8456 15.7195 13.7948 15.9558 13.9494L20.2458 16.7842C20.4866 16.9426 20.5589 17.2608 20.4096 17.5062Z" fill="#494948"/>
<path d="M12.0109 3.50054C15.3258 3.50419 18.0121 6.16576 18.0158 9.45007C18.0158 9.64336 18.1739 9.80003 18.369 9.80003C18.5641 9.80003 18.7222 9.64336 18.7222 9.45007C18.7181 5.77935 15.7158 2.80464 12.0109 2.80062C11.8158 2.80062 11.6577 2.95729 11.6577 3.15058C11.6577 3.34387 11.8158 3.50054 12.0109 3.50054Z" fill="#494948"/>
<path d="M12.0109 5.60057C14.1558 5.60308 15.8939 7.32521 15.8964 9.45033C15.8964 9.64362 16.0546 9.80029 16.2496 9.80029C16.4447 9.80029 16.6029 9.64362 16.6029 9.45033C16.5999 6.93878 14.5457 4.90352 12.0109 4.90065C11.8158 4.90065 11.6577 5.05732 11.6577 5.25061C11.6577 5.44391 11.8158 5.60057 12.0109 5.60057Z" fill="#494948"/>
<path d="M12.0109 7.70033C12.9858 7.70148 13.7759 8.48424 13.7771 9.4502C13.7771 9.64349 13.9352 9.80016 14.1303 9.80016C14.3253 9.80016 14.4835 9.64349 14.4835 9.4502C14.4819 8.09787 13.3758 7.00194 12.0109 7.00042C11.8158 7.00042 11.6577 7.15709 11.6577 7.35038C11.6577 7.54367 11.8158 7.70033 12.0109 7.70033Z" fill="#494948"/>
</svg>
