<svg width="16" height="15" viewBox="0 0 16 15" fill="none" xmlns="http://www.w3.org/2000/svg">
<path d="M14.7433 11.572L11.6788 9.54715C11.2899 9.29225 10.7686 9.37612 10.4811 9.73987L9.58844 10.877C9.47372 11.0269 9.26519 11.0704 9.09923 10.979L8.92942 10.8863C8.36652 10.5823 7.66613 10.2038 6.25498 8.8052C4.84383 7.40656 4.46108 6.7121 4.15427 6.15542L4.06116 5.98718C3.9677 5.82277 4.01075 5.61528 4.16207 5.50071L5.30904 4.61654C5.67603 4.33165 5.7608 3.8153 5.50383 3.42987L3.46015 0.393604C3.19679 0.00111493 2.66843 -0.116708 2.26073 0.126115L0.979255 0.8888C0.576609 1.12333 0.281204 1.50317 0.154982 1.94871C-0.306473 3.61458 0.0406747 6.48961 4.31526 10.7253C7.7156 14.094 10.247 15 11.9869 15C12.3873 15.0017 12.7862 14.95 13.1728 14.8465C13.6225 14.7216 14.006 14.4289 14.2425 14.0298L15.0131 12.7609C15.2585 12.3569 15.1396 11.8331 14.7433 11.572ZM14.5783 12.5044L13.8095 13.7741C13.6397 14.0621 13.3639 14.2739 13.04 14.365C11.4878 14.7872 8.77603 14.4375 4.67225 10.3716C0.568478 6.30564 0.215535 3.61909 0.641687 2.08097C0.733818 1.75967 0.947825 1.48609 1.23888 1.31753L2.52035 0.555838C2.69725 0.450377 2.92658 0.501496 3.04085 0.671815L4.15101 2.32318L5.08279 3.70782C5.19438 3.87501 5.15772 4.09908 4.99853 4.22279L3.85129 5.10696C3.50216 5.37146 3.40246 5.85005 3.61741 6.22988L3.70851 6.39387C4.03097 6.97983 4.43187 7.70876 5.8955 9.15867C7.35914 10.6085 8.09462 11.0058 8.68576 11.3252L8.85151 11.4157C9.23485 11.6287 9.71792 11.5299 9.98488 11.184L10.8773 10.0474C11.0022 9.88972 11.2282 9.85342 11.397 9.96386L14.4613 11.9887C14.6333 12.1018 14.6849 12.3292 14.5783 12.5044Z" fill="#494948"/>
<path d="M8.57914 2.50055C10.9469 2.50316 12.8657 4.40428 12.8684 6.75022C12.8684 6.88828 12.9813 7.00019 13.1207 7.00019C13.26 7.00019 13.373 6.88828 13.373 6.75022C13.37 4.12827 11.2255 2.00348 8.57914 2.00061C8.43979 2.00061 8.32684 2.11252 8.32684 2.25058C8.32684 2.38865 8.43979 2.50055 8.57914 2.50055Z" fill="#494948"/>
<path d="M8.57914 4.00068C10.1112 4.00247 11.3527 5.23256 11.3545 6.7505C11.3545 6.88857 11.4675 7.00047 11.6068 7.00047C11.7462 7.00047 11.8591 6.88857 11.8591 6.7505C11.857 4.95654 10.3897 3.50278 8.57914 3.50073C8.43979 3.50073 8.32684 3.61264 8.32684 3.75071C8.32684 3.88877 8.43979 4.00068 8.57914 4.00068Z" fill="#494948"/>
<path d="M8.57914 5.50043C9.2755 5.50125 9.83982 6.06036 9.84068 6.75033C9.84068 6.8884 9.95366 7.0003 10.093 7.0003C10.2323 7.0003 10.3453 6.8884 10.3453 6.75033C10.3441 5.78438 9.55409 5.00157 8.57914 5.00049C8.43979 5.00049 8.32684 5.11239 8.32684 5.25046C8.32684 5.38852 8.43979 5.50043 8.57914 5.50043Z" fill="#494948"/>
</svg>
