<svg width="8" height="13" viewBox="0 0 8 13" fill="none" xmlns="http://www.w3.org/2000/svg">
<path d="M4.10313 6.34637C5.74354 6.34637 7.07812 4.95979 7.07812 3.25546C7.07812 1.55113 5.74354 0.164551 4.10313 0.164551C4.09672 0.164551 4.09035 0.16466 4.08401 0.164914H1.65382C1.65358 0.164914 1.65337 0.164878 1.65316 0.164878C1.36322 0.164878 1.12816 0.409096 1.12816 0.710333V0.710369V5.80091V7.43728H0.603125C0.313185 7.43728 0.078125 7.6815 0.078125 7.98273C0.078125 8.28397 0.313185 8.52819 0.603125 8.52819H1.12812V11.6191C1.12812 11.9203 1.36319 12.1646 1.65313 12.1646C1.94307 12.1646 2.17812 11.9203 2.17812 11.6191V8.52819H4.10313C4.39306 8.52819 4.62813 8.28397 4.62813 7.98273C4.62813 7.6815 4.39306 7.43728 4.10313 7.43728H2.17812V6.34637H4.10313ZM4.10313 1.25582C4.1088 1.25582 4.11446 1.25571 4.12006 1.25553C5.17377 1.26499 6.02812 2.15851 6.02812 3.25546C6.02812 4.35826 5.16457 5.25546 4.10313 5.25546H2.17812V1.25582H4.10313Z" fill="#464343"/>
</svg>
