<svg width="9" height="14" viewBox="0 0 9 14" fill="none" xmlns="http://www.w3.org/2000/svg">
<path d="M5.175 7.21212C7.28411 7.21212 9 5.59444 9 3.60606C9 1.61768 7.28411 0 5.175 0C5.16677 0 5.15858 0.000127273 5.15043 0.000424242H2.0259C2.02558 0.000424242 2.02532 0.000381818 2.02505 0.000381818C1.65227 0.000381818 1.35005 0.285303 1.35005 0.636745V0.636788V6.57576V8.48485H0.675C0.30222 8.48485 0 8.76977 0 9.12121C0 9.47265 0.30222 9.75758 0.675 9.75758H1.35V13.3636C1.35 13.7151 1.65222 14 2.025 14C2.39778 14 2.7 13.7151 2.7 13.3636V9.75758H5.175C5.54778 9.75758 5.85 9.47265 5.85 9.12121C5.85 8.76977 5.54778 8.48485 5.175 8.48485H2.7V7.21212H5.175ZM5.175 1.27315C5.18229 1.27315 5.18958 1.27302 5.19678 1.27281C6.55155 1.28384 7.65 2.32629 7.65 3.60606C7.65 4.89266 6.53972 5.93939 5.175 5.93939H2.7V1.27315H5.175Z" fill="#494948"/>
</svg>
