<svg width="13" height="22" viewBox="0 0 13 22" fill="none" xmlns="http://www.w3.org/2000/svg">
<path d="M7.475 11.3333C10.5215 11.3333 13 8.79127 13 5.66667C13 2.54207 10.5215 0 7.475 0C7.4631 0 7.45127 0.0002 7.43951 0.000666667H2.9263L2.92506 0.0006C2.3866 0.0006 1.95006 0.448333 1.95006 1.0006V10.3333V13.3333H0.975C0.43654 13.3333 0 13.7811 0 14.3333C0 14.8856 0.43654 15.3333 0.975 15.3333H1.95V21C1.95 21.5523 2.38654 22 2.925 22C3.46346 22 3.9 21.5523 3.9 21V15.3333H7.475C8.01346 15.3333 8.45 14.8856 8.45 14.3333C8.45 13.7811 8.01346 13.3333 7.475 13.3333H3.9V11.3333H7.475ZM7.475 2.00067C7.48553 2.00067 7.49606 2.00047 7.50646 2.00013C9.46335 2.01747 11.05 3.6556 11.05 5.66667C11.05 7.68847 9.44625 9.33333 7.475 9.33333H3.9V2.00067H7.475Z" fill="#494948"/>
</svg>
